<?xml version="1.0" encoding="utf-8" standalone="no"?>
<!DOCTYPE svg PUBLIC "-//W3C//DTD SVG 1.1//EN"
  "http://www.w3.org/Graphics/SVG/1.1/DTD/svg11.dtd">
<svg xmlns:xlink="http://www.w3.org/1999/xlink" width="460.8pt" height="345.6pt" viewBox="0 0 460.8 345.6" xmlns="http://www.w3.org/2000/svg" version="1.1">
 <metadata>
  <rdf:RDF xmlns:dc="http://purl.org/dc/elements/1.1/" xmlns:cc="http://creativecommons.org/ns#" xmlns:rdf="http://www.w3.org/1999/02/22-rdf-syntax-ns#">
   <cc:Work>
    <dc:type rdf:resource="http://purl.org/dc/dcmitype/StillImage"/>
    <dc:date>2023-04-22T22:50:38.883685</dc:date>
    <dc:format>image/svg+xml</dc:format>
    <dc:creator>
     <cc:Agent>
      <dc:title>Matplotlib v3.5.2, https://matplotlib.org/</dc:title>
     </cc:Agent>
    </dc:creator>
   </cc:Work>
  </rdf:RDF>
 </metadata>
 <defs>
  <style type="text/css">*{stroke-linejoin: round; stroke-linecap: butt}</style>
 </defs>
 <g id="figure_1">
  <g id="patch_1">
   <path d="M 0 345.6 
L 460.8 345.6 
L 460.8 0 
L 0 0 
z
" style="fill: #ffffff"/>
  </g>
  <g id="axes_1">
   <g id="patch_2">
    <path d="M 57.6 307.584 
L 414.72 307.584 
L 414.72 41.472 
L 57.6 41.472 
z
" style="fill: #ffffff"/>
   </g>
   <g id="matplotlib.axis_1">
    <g id="xtick_1">
     <g id="line2d_1">
      <defs>
       <path id="m68ff8ce74c" d="M 0 0 
L 0 3.5 
" style="stroke: #000000; stroke-width: 0.8"/>
      </defs>
      <g>
       <use xlink:href="#m68ff8ce74c" x="73.832727" y="307.584" style="stroke: #000000; stroke-width: 0.8"/>
      </g>
     </g>
     <g id="text_1">
      <!-- 0 -->
      <g transform="translate(70.651477 322.182437)scale(0.1 -0.1)">
       <defs>
        <path id="DejaVuSans-30" d="M 2034 4250 
Q 1547 4250 1301 3770 
Q 1056 3291 1056 2328 
Q 1056 1369 1301 889 
Q 1547 409 2034 409 
Q 2525 409 2770 889 
Q 3016 1369 3016 2328 
Q 3016 3291 2770 3770 
Q 2525 4250 2034 4250 
z
M 2034 4750 
Q 2819 4750 3233 4129 
Q 3647 3509 3647 2328 
Q 3647 1150 3233 529 
Q 2819 -91 2034 -91 
Q 1250 -91 836 529 
Q 422 1150 422 2328 
Q 422 3509 836 4129 
Q 1250 4750 2034 4750 
z
" transform="scale(0.015625)"/>
       </defs>
       <use xlink:href="#DejaVuSans-30"/>
      </g>
     </g>
    </g>
    <g id="xtick_2">
     <g id="line2d_2">
      <g>
       <use xlink:href="#m68ff8ce74c" x="138.763636" y="307.584" style="stroke: #000000; stroke-width: 0.8"/>
      </g>
     </g>
     <g id="text_2">
      <!-- 1 -->
      <g transform="translate(135.582386 322.182437)scale(0.1 -0.1)">
       <defs>
        <path id="DejaVuSans-31" d="M 794 531 
L 1825 531 
L 1825 4091 
L 703 3866 
L 703 4441 
L 1819 4666 
L 2450 4666 
L 2450 531 
L 3481 531 
L 3481 0 
L 794 0 
L 794 531 
z
" transform="scale(0.015625)"/>
       </defs>
       <use xlink:href="#DejaVuSans-31"/>
      </g>
     </g>
    </g>
    <g id="xtick_3">
     <g id="line2d_3">
      <g>
       <use xlink:href="#m68ff8ce74c" x="203.694545" y="307.584" style="stroke: #000000; stroke-width: 0.8"/>
      </g>
     </g>
     <g id="text_3">
      <!-- 2 -->
      <g transform="translate(200.513295 322.182437)scale(0.1 -0.1)">
       <defs>
        <path id="DejaVuSans-32" d="M 1228 531 
L 3431 531 
L 3431 0 
L 469 0 
L 469 531 
Q 828 903 1448 1529 
Q 2069 2156 2228 2338 
Q 2531 2678 2651 2914 
Q 2772 3150 2772 3378 
Q 2772 3750 2511 3984 
Q 2250 4219 1831 4219 
Q 1534 4219 1204 4116 
Q 875 4013 500 3803 
L 500 4441 
Q 881 4594 1212 4672 
Q 1544 4750 1819 4750 
Q 2544 4750 2975 4387 
Q 3406 4025 3406 3419 
Q 3406 3131 3298 2873 
Q 3191 2616 2906 2266 
Q 2828 2175 2409 1742 
Q 1991 1309 1228 531 
z
" transform="scale(0.015625)"/>
       </defs>
       <use xlink:href="#DejaVuSans-32"/>
      </g>
     </g>
    </g>
    <g id="xtick_4">
     <g id="line2d_4">
      <g>
       <use xlink:href="#m68ff8ce74c" x="268.625455" y="307.584" style="stroke: #000000; stroke-width: 0.8"/>
      </g>
     </g>
     <g id="text_4">
      <!-- 3 -->
      <g transform="translate(265.444205 322.182437)scale(0.1 -0.1)">
       <defs>
        <path id="DejaVuSans-33" d="M 2597 2516 
Q 3050 2419 3304 2112 
Q 3559 1806 3559 1356 
Q 3559 666 3084 287 
Q 2609 -91 1734 -91 
Q 1441 -91 1130 -33 
Q 819 25 488 141 
L 488 750 
Q 750 597 1062 519 
Q 1375 441 1716 441 
Q 2309 441 2620 675 
Q 2931 909 2931 1356 
Q 2931 1769 2642 2001 
Q 2353 2234 1838 2234 
L 1294 2234 
L 1294 2753 
L 1863 2753 
Q 2328 2753 2575 2939 
Q 2822 3125 2822 3475 
Q 2822 3834 2567 4026 
Q 2313 4219 1838 4219 
Q 1578 4219 1281 4162 
Q 984 4106 628 3988 
L 628 4550 
Q 988 4650 1302 4700 
Q 1616 4750 1894 4750 
Q 2613 4750 3031 4423 
Q 3450 4097 3450 3541 
Q 3450 3153 3228 2886 
Q 3006 2619 2597 2516 
z
" transform="scale(0.015625)"/>
       </defs>
       <use xlink:href="#DejaVuSans-33"/>
      </g>
     </g>
    </g>
    <g id="xtick_5">
     <g id="line2d_5">
      <g>
       <use xlink:href="#m68ff8ce74c" x="333.556364" y="307.584" style="stroke: #000000; stroke-width: 0.8"/>
      </g>
     </g>
     <g id="text_5">
      <!-- 4 -->
      <g transform="translate(330.375114 322.182437)scale(0.1 -0.1)">
       <defs>
        <path id="DejaVuSans-34" d="M 2419 4116 
L 825 1625 
L 2419 1625 
L 2419 4116 
z
M 2253 4666 
L 3047 4666 
L 3047 1625 
L 3713 1625 
L 3713 1100 
L 3047 1100 
L 3047 0 
L 2419 0 
L 2419 1100 
L 313 1100 
L 313 1709 
L 2253 4666 
z
" transform="scale(0.015625)"/>
       </defs>
       <use xlink:href="#DejaVuSans-34"/>
      </g>
     </g>
    </g>
    <g id="xtick_6">
     <g id="line2d_6">
      <g>
       <use xlink:href="#m68ff8ce74c" x="398.487273" y="307.584" style="stroke: #000000; stroke-width: 0.8"/>
      </g>
     </g>
     <g id="text_6">
      <!-- 5 -->
      <g transform="translate(395.306023 322.182437)scale(0.1 -0.1)">
       <defs>
        <path id="DejaVuSans-35" d="M 691 4666 
L 3169 4666 
L 3169 4134 
L 1269 4134 
L 1269 2991 
Q 1406 3038 1543 3061 
Q 1681 3084 1819 3084 
Q 2600 3084 3056 2656 
Q 3513 2228 3513 1497 
Q 3513 744 3044 326 
Q 2575 -91 1722 -91 
Q 1428 -91 1123 -41 
Q 819 9 494 109 
L 494 744 
Q 775 591 1075 516 
Q 1375 441 1709 441 
Q 2250 441 2565 725 
Q 2881 1009 2881 1497 
Q 2881 1984 2565 2268 
Q 2250 2553 1709 2553 
Q 1456 2553 1204 2497 
Q 953 2441 691 2322 
L 691 4666 
z
" transform="scale(0.015625)"/>
       </defs>
       <use xlink:href="#DejaVuSans-35"/>
      </g>
     </g>
    </g>
    <g id="text_7">
     <!-- x osa -->
     <g transform="translate(222.883437 335.860562)scale(0.1 -0.1)">
      <defs>
       <path id="DejaVuSans-78" d="M 3513 3500 
L 2247 1797 
L 3578 0 
L 2900 0 
L 1881 1375 
L 863 0 
L 184 0 
L 1544 1831 
L 300 3500 
L 978 3500 
L 1906 2253 
L 2834 3500 
L 3513 3500 
z
" transform="scale(0.015625)"/>
       <path id="DejaVuSans-20" transform="scale(0.015625)"/>
       <path id="DejaVuSans-6f" d="M 1959 3097 
Q 1497 3097 1228 2736 
Q 959 2375 959 1747 
Q 959 1119 1226 758 
Q 1494 397 1959 397 
Q 2419 397 2687 759 
Q 2956 1122 2956 1747 
Q 2956 2369 2687 2733 
Q 2419 3097 1959 3097 
z
M 1959 3584 
Q 2709 3584 3137 3096 
Q 3566 2609 3566 1747 
Q 3566 888 3137 398 
Q 2709 -91 1959 -91 
Q 1206 -91 779 398 
Q 353 888 353 1747 
Q 353 2609 779 3096 
Q 1206 3584 1959 3584 
z
" transform="scale(0.015625)"/>
       <path id="DejaVuSans-73" d="M 2834 3397 
L 2834 2853 
Q 2591 2978 2328 3040 
Q 2066 3103 1784 3103 
Q 1356 3103 1142 2972 
Q 928 2841 928 2578 
Q 928 2378 1081 2264 
Q 1234 2150 1697 2047 
L 1894 2003 
Q 2506 1872 2764 1633 
Q 3022 1394 3022 966 
Q 3022 478 2636 193 
Q 2250 -91 1575 -91 
Q 1294 -91 989 -36 
Q 684 19 347 128 
L 347 722 
Q 666 556 975 473 
Q 1284 391 1588 391 
Q 1994 391 2212 530 
Q 2431 669 2431 922 
Q 2431 1156 2273 1281 
Q 2116 1406 1581 1522 
L 1381 1569 
Q 847 1681 609 1914 
Q 372 2147 372 2553 
Q 372 3047 722 3315 
Q 1072 3584 1716 3584 
Q 2034 3584 2315 3537 
Q 2597 3491 2834 3397 
z
" transform="scale(0.015625)"/>
       <path id="DejaVuSans-61" d="M 2194 1759 
Q 1497 1759 1228 1600 
Q 959 1441 959 1056 
Q 959 750 1161 570 
Q 1363 391 1709 391 
Q 2188 391 2477 730 
Q 2766 1069 2766 1631 
L 2766 1759 
L 2194 1759 
z
M 3341 1997 
L 3341 0 
L 2766 0 
L 2766 531 
Q 2569 213 2275 61 
Q 1981 -91 1556 -91 
Q 1019 -91 701 211 
Q 384 513 384 1019 
Q 384 1609 779 1909 
Q 1175 2209 1959 2209 
L 2766 2209 
L 2766 2266 
Q 2766 2663 2505 2880 
Q 2244 3097 1772 3097 
Q 1472 3097 1187 3025 
Q 903 2953 641 2809 
L 641 3341 
Q 956 3463 1253 3523 
Q 1550 3584 1831 3584 
Q 2591 3584 2966 3190 
Q 3341 2797 3341 1997 
z
" transform="scale(0.015625)"/>
      </defs>
      <use xlink:href="#DejaVuSans-78"/>
      <use xlink:href="#DejaVuSans-20" x="59.179688"/>
      <use xlink:href="#DejaVuSans-6f" x="90.966797"/>
      <use xlink:href="#DejaVuSans-73" x="152.148438"/>
      <use xlink:href="#DejaVuSans-61" x="204.248047"/>
     </g>
    </g>
   </g>
   <g id="matplotlib.axis_2">
    <g id="ytick_1">
     <g id="line2d_7">
      <defs>
       <path id="m45b87ecf23" d="M 0 0 
L -3.5 0 
" style="stroke: #000000; stroke-width: 0.8"/>
      </defs>
      <g>
       <use xlink:href="#m45b87ecf23" x="57.6" y="295.488" style="stroke: #000000; stroke-width: 0.8"/>
      </g>
     </g>
     <g id="text_8">
      <!-- 0 -->
      <g transform="translate(44.2375 299.287219)scale(0.1 -0.1)">
       <use xlink:href="#DejaVuSans-30"/>
      </g>
     </g>
    </g>
    <g id="ytick_2">
     <g id="line2d_8">
      <g>
       <use xlink:href="#m45b87ecf23" x="57.6" y="247.104" style="stroke: #000000; stroke-width: 0.8"/>
      </g>
     </g>
     <g id="text_9">
      <!-- 5 -->
      <g transform="translate(44.2375 250.903219)scale(0.1 -0.1)">
       <use xlink:href="#DejaVuSans-35"/>
      </g>
     </g>
    </g>
    <g id="ytick_3">
     <g id="line2d_9">
      <g>
       <use xlink:href="#m45b87ecf23" x="57.6" y="198.72" style="stroke: #000000; stroke-width: 0.8"/>
      </g>
     </g>
     <g id="text_10">
      <!-- 10 -->
      <g transform="translate(37.875 202.519219)scale(0.1 -0.1)">
       <use xlink:href="#DejaVuSans-31"/>
       <use xlink:href="#DejaVuSans-30" x="63.623047"/>
      </g>
     </g>
    </g>
    <g id="ytick_4">
     <g id="line2d_10">
      <g>
       <use xlink:href="#m45b87ecf23" x="57.6" y="150.336" style="stroke: #000000; stroke-width: 0.8"/>
      </g>
     </g>
     <g id="text_11">
      <!-- 15 -->
      <g transform="translate(37.875 154.135219)scale(0.1 -0.1)">
       <use xlink:href="#DejaVuSans-31"/>
       <use xlink:href="#DejaVuSans-35" x="63.623047"/>
      </g>
     </g>
    </g>
    <g id="ytick_5">
     <g id="line2d_11">
      <g>
       <use xlink:href="#m45b87ecf23" x="57.6" y="101.952" style="stroke: #000000; stroke-width: 0.8"/>
      </g>
     </g>
     <g id="text_12">
      <!-- 20 -->
      <g transform="translate(37.875 105.751219)scale(0.1 -0.1)">
       <use xlink:href="#DejaVuSans-32"/>
       <use xlink:href="#DejaVuSans-30" x="63.623047"/>
      </g>
     </g>
    </g>
    <g id="ytick_6">
     <g id="line2d_12">
      <g>
       <use xlink:href="#m45b87ecf23" x="57.6" y="53.568" style="stroke: #000000; stroke-width: 0.8"/>
      </g>
     </g>
     <g id="text_13">
      <!-- 25 -->
      <g transform="translate(37.875 57.367219)scale(0.1 -0.1)">
       <use xlink:href="#DejaVuSans-32"/>
       <use xlink:href="#DejaVuSans-35" x="63.623047"/>
      </g>
     </g>
    </g>
    <g id="text_14">
     <!-- y osa -->
     <g transform="translate(31.795313 187.804563)rotate(-90)scale(0.1 -0.1)">
      <defs>
       <path id="DejaVuSans-79" d="M 2059 -325 
Q 1816 -950 1584 -1140 
Q 1353 -1331 966 -1331 
L 506 -1331 
L 506 -850 
L 844 -850 
Q 1081 -850 1212 -737 
Q 1344 -625 1503 -206 
L 1606 56 
L 191 3500 
L 800 3500 
L 1894 763 
L 2988 3500 
L 3597 3500 
L 2059 -325 
z
" transform="scale(0.015625)"/>
      </defs>
      <use xlink:href="#DejaVuSans-79"/>
      <use xlink:href="#DejaVuSans-20" x="59.179688"/>
      <use xlink:href="#DejaVuSans-6f" x="90.966797"/>
      <use xlink:href="#DejaVuSans-73" x="152.148438"/>
      <use xlink:href="#DejaVuSans-61" x="204.248047"/>
     </g>
    </g>
   </g>
   <g id="line2d_13">
    <path d="M 73.832727 295.488 
L 77.112066 294.999273 
L 80.391405 294.510545 
L 83.670744 294.021818 
L 86.950083 293.533091 
L 90.229421 293.044364 
L 93.50876 292.555636 
L 96.788099 292.066909 
L 100.067438 291.578182 
L 103.346777 291.089455 
L 106.626116 290.600727 
L 109.905455 290.112 
L 113.184793 289.623273 
L 116.464132 289.134545 
L 119.743471 288.645818 
L 123.02281 288.157091 
L 126.302149 287.668364 
L 129.581488 287.179636 
L 132.860826 286.690909 
L 136.140165 286.202182 
L 139.419504 285.713455 
L 142.698843 285.224727 
L 145.978182 284.736 
L 149.257521 284.247273 
L 152.53686 283.758545 
L 155.816198 283.269818 
L 159.095537 282.781091 
L 162.374876 282.292364 
L 165.654215 281.803636 
L 168.933554 281.314909 
L 172.212893 280.826182 
L 175.492231 280.337455 
L 178.77157 279.848727 
L 182.050909 279.36 
L 185.330248 278.871273 
L 188.609587 278.382545 
L 191.888926 277.893818 
L 195.168264 277.405091 
L 198.447603 276.916364 
L 201.726942 276.427636 
L 205.006281 275.938909 
L 208.28562 275.450182 
L 211.564959 274.961455 
L 214.844298 274.472727 
L 218.123636 273.984 
L 221.402975 273.495273 
L 224.682314 273.006545 
L 227.961653 272.517818 
L 231.240992 272.029091 
L 234.520331 271.540364 
L 237.799669 271.051636 
L 241.079008 270.562909 
L 244.358347 270.074182 
L 247.637686 269.585455 
L 250.917025 269.096727 
L 254.196364 268.608 
L 257.475702 268.119273 
L 260.755041 267.630545 
L 264.03438 267.141818 
L 267.313719 266.653091 
L 270.593058 266.164364 
L 273.872397 265.675636 
L 277.151736 265.186909 
L 280.431074 264.698182 
L 283.710413 264.209455 
L 286.989752 263.720727 
L 290.269091 263.232 
L 293.54843 262.743273 
L 296.827769 262.254545 
L 300.107107 261.765818 
L 303.386446 261.277091 
L 306.665785 260.788364 
L 309.945124 260.299636 
L 313.224463 259.810909 
L 316.503802 259.322182 
L 319.78314 258.833455 
L 323.062479 258.344727 
L 326.341818 257.856 
L 329.621157 257.367273 
L 332.900496 256.878545 
L 336.179835 256.389818 
L 339.459174 255.901091 
L 342.738512 255.412364 
L 346.017851 254.923636 
L 349.29719 254.434909 
L 352.576529 253.946182 
L 355.855868 253.457455 
L 359.135207 252.968727 
L 362.414545 252.48 
L 365.693884 251.991273 
L 368.973223 251.502545 
L 372.252562 251.013818 
L 375.531901 250.525091 
L 378.81124 250.036364 
L 382.090579 249.547636 
L 385.369917 249.058909 
L 388.649256 248.570182 
L 391.928595 248.081455 
L 395.207934 247.592727 
L 398.487273 247.104 
" clip-path="url(#p71ba799cf7)" style="fill: none; stroke: #ff0000; stroke-width: 1.5; stroke-linecap: square"/>
   </g>
   <g id="line2d_14">
    <path d="M 73.832727 295.488 
L 77.112066 295.463317 
L 80.391405 295.389267 
L 83.670744 295.265851 
L 86.950083 295.093069 
L 90.229421 294.87092 
L 93.50876 294.599405 
L 96.788099 294.278523 
L 100.067438 293.908275 
L 103.346777 293.488661 
L 106.626116 293.01968 
L 109.905455 292.501333 
L 113.184793 291.93362 
L 116.464132 291.31654 
L 119.743471 290.650094 
L 123.02281 289.934281 
L 126.302149 289.169102 
L 129.581488 288.354556 
L 132.860826 287.490645 
L 136.140165 286.577366 
L 139.419504 285.614722 
L 142.698843 284.602711 
L 145.978182 283.541333 
L 149.257521 282.43059 
L 152.53686 281.270479 
L 155.816198 280.061003 
L 159.095537 278.80216 
L 162.374876 277.49395 
L 165.654215 276.136375 
L 168.933554 274.729433 
L 172.212893 273.273124 
L 175.492231 271.767449 
L 178.77157 270.212408 
L 182.050909 268.608 
L 185.330248 266.954226 
L 188.609587 265.251085 
L 191.888926 263.498579 
L 195.168264 261.696705 
L 198.447603 259.845466 
L 201.726942 257.94486 
L 205.006281 255.994887 
L 208.28562 253.995548 
L 211.564959 251.946843 
L 214.844298 249.848771 
L 218.123636 247.701333 
L 221.402975 245.504529 
L 224.682314 243.258358 
L 227.961653 240.962821 
L 231.240992 238.617917 
L 234.520331 236.223647 
L 237.799669 233.780011 
L 241.079008 231.287008 
L 244.358347 228.744639 
L 247.637686 226.152904 
L 250.917025 223.511802 
L 254.196364 220.821333 
L 257.475702 218.081499 
L 260.755041 215.292298 
L 264.03438 212.45373 
L 267.313719 209.565796 
L 270.593058 206.628496 
L 273.872397 203.641829 
L 277.151736 200.605796 
L 280.431074 197.520397 
L 283.710413 194.385631 
L 286.989752 191.201499 
L 290.269091 187.968 
L 293.54843 184.685135 
L 296.827769 181.352904 
L 300.107107 177.971306 
L 303.386446 174.540342 
L 306.665785 171.060011 
L 309.945124 167.530314 
L 313.224463 163.951251 
L 316.503802 160.322821 
L 319.78314 156.645025 
L 323.062479 152.917862 
L 326.341818 149.141333 
L 329.621157 145.315438 
L 332.900496 141.440176 
L 336.179835 137.515548 
L 339.459174 133.541554 
L 342.738512 129.518193 
L 346.017851 125.445466 
L 349.29719 121.323372 
L 352.576529 117.151912 
L 355.855868 112.931085 
L 359.135207 108.660893 
L 362.414545 104.341333 
L 365.693884 99.972408 
L 368.973223 95.554116 
L 372.252562 91.086457 
L 375.531901 86.569433 
L 378.81124 82.003041 
L 382.090579 77.387284 
L 385.369917 72.72216 
L 388.649256 68.007669 
L 391.928595 63.243813 
L 395.207934 58.43059 
L 398.487273 53.568 
" clip-path="url(#p71ba799cf7)" style="fill: none; stroke: #008000; stroke-width: 1.5; stroke-linecap: square"/>
   </g>
   <g id="line2d_15">
    <path d="M 73.832727 295.488 
L 77.112066 295.378167 
L 80.391405 295.177345 
L 83.670744 294.91729 
L 86.950083 294.609334 
L 90.229421 294.260027 
L 93.50876 293.873787 
L 96.788099 293.453859 
L 100.067438 293.002756 
L 103.346777 292.522501 
L 106.626116 292.014767 
L 109.905455 291.480966 
L 113.184793 290.922316 
L 116.464132 290.339876 
L 119.743471 289.734581 
L 123.02281 289.107263 
L 126.302149 288.45867 
L 129.581488 287.789478 
L 132.860826 287.100303 
L 136.140165 286.391708 
L 139.419504 285.664212 
L 142.698843 284.918294 
L 145.978182 284.154397 
L 149.257521 283.372935 
L 152.53686 282.574296 
L 155.816198 281.758839 
L 159.095537 280.926906 
L 162.374876 280.078817 
L 165.654215 279.214873 
L 168.933554 278.33536 
L 172.212893 277.440549 
L 175.492231 276.530698 
L 178.77157 275.606051 
L 182.050909 274.666842 
L 185.330248 273.713291 
L 188.609587 272.745613 
L 191.888926 271.76401 
L 195.168264 270.768677 
L 198.447603 269.759802 
L 201.726942 268.737562 
L 205.006281 267.702132 
L 208.28562 266.653677 
L 211.564959 265.592356 
L 214.844298 264.518324 
L 218.123636 263.431729 
L 221.402975 262.332716 
L 224.682314 261.221423 
L 227.961653 260.097983 
L 231.240992 258.962528 
L 234.520331 257.815183 
L 237.799669 256.656069 
L 241.079008 255.485306 
L 244.358347 254.303007 
L 247.637686 253.109285 
L 250.917025 251.904248 
L 254.196364 250.688 
L 257.475702 249.460645 
L 260.755041 248.222282 
L 264.03438 246.973007 
L 267.313719 245.712917 
L 270.593058 244.442101 
L 273.872397 243.160651 
L 277.151736 241.868654 
L 280.431074 240.566195 
L 283.710413 239.253357 
L 286.989752 237.930223 
L 290.269091 236.596871 
L 293.54843 235.253379 
L 296.827769 233.899823 
L 300.107107 232.536278 
L 303.386446 231.162816 
L 306.665785 229.779508 
L 309.945124 228.386423 
L 313.224463 226.983631 
L 316.503802 225.571197 
L 319.78314 224.149188 
L 323.062479 222.717666 
L 326.341818 221.276695 
L 329.621157 219.826337 
L 332.900496 218.366651 
L 336.179835 216.897698 
L 339.459174 215.419534 
L 342.738512 213.932218 
L 346.017851 212.435804 
L 349.29719 210.930349 
L 352.576529 209.415906 
L 355.855868 207.892528 
L 359.135207 206.360267 
L 362.414545 204.819175 
L 365.693884 203.269301 
L 368.973223 201.710696 
L 372.252562 200.143407 
L 375.531901 198.567483 
L 378.81124 196.982971 
L 382.090579 195.389917 
L 385.369917 193.788367 
L 388.649256 192.178364 
L 391.928595 190.559955 
L 395.207934 188.933182 
L 398.487273 187.298087 
" clip-path="url(#p71ba799cf7)" style="fill: none; stroke: #0000ff; stroke-width: 1.5; stroke-linecap: square"/>
   </g>
   <g id="patch_3">
    <path d="M 57.6 307.584 
L 57.6 41.472 
" style="fill: none; stroke: #000000; stroke-width: 0.8; stroke-linejoin: miter; stroke-linecap: square"/>
   </g>
   <g id="patch_4">
    <path d="M 414.72 307.584 
L 414.72 41.472 
" style="fill: none; stroke: #000000; stroke-width: 0.8; stroke-linejoin: miter; stroke-linecap: square"/>
   </g>
   <g id="patch_5">
    <path d="M 57.6 307.584 
L 414.72 307.584 
" style="fill: none; stroke: #000000; stroke-width: 0.8; stroke-linejoin: miter; stroke-linecap: square"/>
   </g>
   <g id="patch_6">
    <path d="M 57.6 41.472 
L 414.72 41.472 
" style="fill: none; stroke: #000000; stroke-width: 0.8; stroke-linejoin: miter; stroke-linecap: square"/>
   </g>
   <g id="legend_1">
    <g id="patch_7">
     <path d="M 64.6 100.250125 
L 137.8 100.250125 
Q 139.8 100.250125 139.8 98.250125 
L 139.8 48.472 
Q 139.8 46.472 137.8 46.472 
L 64.6 46.472 
Q 62.6 46.472 62.6 48.472 
L 62.6 98.250125 
Q 62.6 100.250125 64.6 100.250125 
z
" style="fill: #ffffff; opacity: 0.8; stroke: #cccccc; stroke-linejoin: miter"/>
    </g>
    <g id="line2d_16">
     <path d="M 66.6 54.570437 
L 76.6 54.570437 
L 86.6 54.570437 
" style="fill: none; stroke: #ff0000; stroke-width: 1.5; stroke-linecap: square"/>
    </g>
    <g id="text_15">
     <!-- y = x -->
     <g transform="translate(94.6 58.070437)scale(0.1 -0.1)">
      <defs>
       <path id="DejaVuSans-3d" d="M 678 2906 
L 4684 2906 
L 4684 2381 
L 678 2381 
L 678 2906 
z
M 678 1631 
L 4684 1631 
L 4684 1100 
L 678 1100 
L 678 1631 
z
" transform="scale(0.015625)"/>
      </defs>
      <use xlink:href="#DejaVuSans-79"/>
      <use xlink:href="#DejaVuSans-20" x="59.179688"/>
      <use xlink:href="#DejaVuSans-3d" x="90.966797"/>
      <use xlink:href="#DejaVuSans-20" x="174.755859"/>
      <use xlink:href="#DejaVuSans-78" x="206.542969"/>
     </g>
    </g>
    <g id="line2d_17">
     <path d="M 66.6 70.750125 
L 76.6 70.750125 
L 86.6 70.750125 
" style="fill: none; stroke: #008000; stroke-width: 1.5; stroke-linecap: square"/>
    </g>
    <g id="text_16">
     <!-- y = $x^2$ -->
     <g transform="translate(94.6 74.250125)scale(0.1 -0.1)">
      <defs>
       <path id="DejaVuSans-Oblique-78" d="M 3841 3500 
L 2234 1784 
L 3219 0 
L 2559 0 
L 1819 1388 
L 531 0 
L -166 0 
L 1556 1844 
L 641 3500 
L 1300 3500 
L 1972 2234 
L 3144 3500 
L 3841 3500 
z
" transform="scale(0.015625)"/>
      </defs>
      <use xlink:href="#DejaVuSans-79" transform="translate(0 0.765625)"/>
      <use xlink:href="#DejaVuSans-20" transform="translate(59.179688 0.765625)"/>
      <use xlink:href="#DejaVuSans-3d" transform="translate(90.966797 0.765625)"/>
      <use xlink:href="#DejaVuSans-20" transform="translate(174.755859 0.765625)"/>
      <use xlink:href="#DejaVuSans-Oblique-78" transform="translate(206.542969 0.765625)"/>
      <use xlink:href="#DejaVuSans-32" transform="translate(270.188802 39.046875)scale(0.7)"/>
     </g>
    </g>
    <g id="line2d_18">
     <path d="M 66.6 90.650125 
L 76.6 90.650125 
L 86.6 90.650125 
" style="fill: none; stroke: #0000ff; stroke-width: 1.5; stroke-linecap: square"/>
    </g>
    <g id="text_17">
     <!-- y = $\sqrt{x^3}$ -->
     <g transform="translate(94.6 94.150125)scale(0.1 -0.1)">
      <defs>
       <path id="STIXSizeOneSym-Regular-221a" d="M 6970 9933 
L 3373 -1888 
L 3104 -1888 
L 1626 2918 
Q 1555 3149 1465 3251 
Q 1376 3354 1229 3354 
Q 1011 3354 794 3181 
L 717 3309 
L 1766 4115 
L 1926 4115 
L 3379 -602 
L 3405 -602 
L 6605 9933 
L 6970 9933 
z
" transform="scale(0.015625)"/>
      </defs>
      <use xlink:href="#DejaVuSans-79" transform="translate(0 0.53125)"/>
      <use xlink:href="#DejaVuSans-20" transform="translate(59.179688 0.53125)"/>
      <use xlink:href="#DejaVuSans-3d" transform="translate(90.966797 0.53125)"/>
      <use xlink:href="#DejaVuSans-20" transform="translate(174.755859 0.53125)"/>
      <use xlink:href="#STIXSizeOneSym-Regular-221a" transform="translate(206.542969 19.9375)scale(0.657728)"/>
      <use xlink:href="#DejaVuSans-Oblique-78" transform="translate(288.55722 0.515625)"/>
      <use xlink:href="#DejaVuSans-33" transform="translate(352.203054 38.796875)scale(0.7)"/>
      <path d="M 276.05722 115.5 
L 276.05722 121.75 
L 411.973562 121.75 
L 411.973562 115.5 
L 276.05722 115.5 
z
"/>
     </g>
    </g>
   </g>
  </g>
 </g>
 <defs>
  <clipPath id="p71ba799cf7">
   <rect x="57.6" y="41.472" width="357.12" height="266.112"/>
  </clipPath>
 </defs>
</svg>
